<mxfile host="app.diagrams.net" modified="2024-04-12T01:39:58.356Z" agent="Mozilla/5.0 (Windows NT 10.0; Win64; x64) AppleWebKit/537.36 (KHTML, like Gecko) Chrome/123.0.0.0 Safari/537.36" etag="DsYOiPzkry2n3m9DYScM" version="24.2.3" type="github">
  <diagram name="Page-1" id="c4acf3e9-155e-7222-9cf6-157b1a14988f">
    <mxGraphModel dx="2759" dy="1025" grid="1" gridSize="10" guides="1" tooltips="1" connect="1" arrows="1" fold="1" page="1" pageScale="1" pageWidth="850" pageHeight="1100" background="none" math="0" shadow="0">
      <root>
        <mxCell id="0" />
        <mxCell id="1" parent="0" />
        <mxCell id="8RnnDRSXlexf_g840mKL-1" value="Figura" style="swimlane;fontStyle=0;childLayout=stackLayout;horizontal=1;startSize=26;fillColor=none;horizontalStack=0;resizeParent=1;resizeParentMax=0;resizeLast=0;collapsible=1;marginBottom=0;whiteSpace=wrap;html=1;" parent="1" vertex="1">
          <mxGeometry x="305" y="40" width="190" height="78" as="geometry" />
        </mxCell>
        <mxCell id="8RnnDRSXlexf_g840mKL-2" value="- ClasificacionFigura: String&lt;div&gt;&lt;br&gt;&lt;/div&gt;" style="text;strokeColor=none;fillColor=none;align=left;verticalAlign=top;spacingLeft=4;spacingRight=4;overflow=hidden;rotatable=0;points=[[0,0.5],[1,0.5]];portConstraint=eastwest;whiteSpace=wrap;html=1;" parent="8RnnDRSXlexf_g840mKL-1" vertex="1">
          <mxGeometry y="26" width="190" height="26" as="geometry" />
        </mxCell>
        <mxCell id="8RnnDRSXlexf_g840mKL-3" value="- List &amp;lt;LongitudLado&amp;gt;: Decimal" style="text;strokeColor=none;fillColor=none;align=left;verticalAlign=top;spacingLeft=4;spacingRight=4;overflow=hidden;rotatable=0;points=[[0,0.5],[1,0.5]];portConstraint=eastwest;whiteSpace=wrap;html=1;" parent="8RnnDRSXlexf_g840mKL-1" vertex="1">
          <mxGeometry y="52" width="190" height="26" as="geometry" />
        </mxCell>
        <mxCell id="8RnnDRSXlexf_g840mKL-14" value="Cuadrilatero" style="swimlane;fontStyle=0;childLayout=stackLayout;horizontal=1;startSize=26;fillColor=none;horizontalStack=0;resizeParent=1;resizeParentMax=0;resizeLast=0;collapsible=1;marginBottom=0;whiteSpace=wrap;html=1;" parent="1" vertex="1">
          <mxGeometry x="30" y="200" width="180" height="80" as="geometry" />
        </mxCell>
        <mxCell id="8RnnDRSXlexf_g840mKL-15" value="- O ClasificacionFigura: Figura" style="text;strokeColor=none;fillColor=none;align=left;verticalAlign=top;spacingLeft=4;spacingRight=4;overflow=hidden;rotatable=0;points=[[0,0.5],[1,0.5]];portConstraint=eastwest;whiteSpace=wrap;html=1;" parent="8RnnDRSXlexf_g840mKL-14" vertex="1">
          <mxGeometry y="26" width="180" height="26" as="geometry" />
        </mxCell>
        <mxCell id="8RnnDRSXlexf_g840mKL-26" value="- TipoFigura: String" style="text;strokeColor=none;fillColor=none;align=left;verticalAlign=top;spacingLeft=4;spacingRight=4;overflow=hidden;rotatable=0;points=[[0,0.5],[1,0.5]];portConstraint=eastwest;whiteSpace=wrap;html=1;" parent="8RnnDRSXlexf_g840mKL-14" vertex="1">
          <mxGeometry y="52" width="180" height="26" as="geometry" />
        </mxCell>
        <mxCell id="8RnnDRSXlexf_g840mKL-16" value="&lt;div&gt;&lt;br&gt;&lt;/div&gt;" style="text;strokeColor=none;fillColor=none;align=left;verticalAlign=top;spacingLeft=4;spacingRight=4;overflow=hidden;rotatable=0;points=[[0,0.5],[1,0.5]];portConstraint=eastwest;whiteSpace=wrap;html=1;" parent="8RnnDRSXlexf_g840mKL-14" vertex="1">
          <mxGeometry y="78" width="180" height="2" as="geometry" />
        </mxCell>
        <mxCell id="8RnnDRSXlexf_g840mKL-20" value="Triangulo" style="swimlane;fontStyle=0;childLayout=stackLayout;horizontal=1;startSize=26;fillColor=none;horizontalStack=0;resizeParent=1;resizeParentMax=0;resizeLast=0;collapsible=1;marginBottom=0;whiteSpace=wrap;html=1;" parent="1" vertex="1">
          <mxGeometry x="312.5" y="200" width="175" height="112" as="geometry" />
        </mxCell>
        <mxCell id="8RnnDRSXlexf_g840mKL-21" value="- O ClasificacionFigura: Figura" style="text;strokeColor=none;fillColor=none;align=left;verticalAlign=top;spacingLeft=4;spacingRight=4;overflow=hidden;rotatable=0;points=[[0,0.5],[1,0.5]];portConstraint=eastwest;whiteSpace=wrap;html=1;" parent="8RnnDRSXlexf_g840mKL-20" vertex="1">
          <mxGeometry y="26" width="175" height="26" as="geometry" />
        </mxCell>
        <mxCell id="8RnnDRSXlexf_g840mKL-22" value="- TipoFigura: String&lt;div&gt;&lt;br&gt;&lt;/div&gt;" style="text;strokeColor=none;fillColor=none;align=left;verticalAlign=top;spacingLeft=4;spacingRight=4;overflow=hidden;rotatable=0;points=[[0,0.5],[1,0.5]];portConstraint=eastwest;whiteSpace=wrap;html=1;" parent="8RnnDRSXlexf_g840mKL-20" vertex="1">
          <mxGeometry y="52" width="175" height="26" as="geometry" />
        </mxCell>
        <mxCell id="ssvTeVl3Sau00PiMSClQ-30" value="" style="line;strokeWidth=1;fillColor=none;align=left;verticalAlign=middle;spacingTop=-1;spacingLeft=3;spacingRight=3;rotatable=0;labelPosition=right;points=[];portConstraint=eastwest;strokeColor=inherit;" parent="8RnnDRSXlexf_g840mKL-20" vertex="1">
          <mxGeometry y="78" width="175" height="8" as="geometry" />
        </mxCell>
        <mxCell id="ssvTeVl3Sau00PiMSClQ-29" value="+ CalcularAltura(): Altura" style="text;strokeColor=none;fillColor=none;align=left;verticalAlign=top;spacingLeft=4;spacingRight=4;overflow=hidden;rotatable=0;points=[[0,0.5],[1,0.5]];portConstraint=eastwest;whiteSpace=wrap;html=1;" parent="8RnnDRSXlexf_g840mKL-20" vertex="1">
          <mxGeometry y="86" width="175" height="26" as="geometry" />
        </mxCell>
        <mxCell id="8RnnDRSXlexf_g840mKL-27" value="Conica" style="swimlane;fontStyle=0;childLayout=stackLayout;horizontal=1;startSize=26;fillColor=none;horizontalStack=0;resizeParent=1;resizeParentMax=0;resizeLast=0;collapsible=1;marginBottom=0;whiteSpace=wrap;html=1;" parent="1" vertex="1">
          <mxGeometry x="590" y="200" width="180" height="78" as="geometry" />
        </mxCell>
        <mxCell id="8RnnDRSXlexf_g840mKL-28" value="- O ClasificacionFigura: Figura" style="text;strokeColor=none;fillColor=none;align=left;verticalAlign=top;spacingLeft=4;spacingRight=4;overflow=hidden;rotatable=0;points=[[0,0.5],[1,0.5]];portConstraint=eastwest;whiteSpace=wrap;html=1;" parent="8RnnDRSXlexf_g840mKL-27" vertex="1">
          <mxGeometry y="26" width="180" height="26" as="geometry" />
        </mxCell>
        <mxCell id="8RnnDRSXlexf_g840mKL-29" value="- TipoFigura: String" style="text;strokeColor=none;fillColor=none;align=left;verticalAlign=top;spacingLeft=4;spacingRight=4;overflow=hidden;rotatable=0;points=[[0,0.5],[1,0.5]];portConstraint=eastwest;whiteSpace=wrap;html=1;" parent="8RnnDRSXlexf_g840mKL-27" vertex="1">
          <mxGeometry y="52" width="180" height="26" as="geometry" />
        </mxCell>
        <mxCell id="8RnnDRSXlexf_g840mKL-39" value="Extends" style="endArrow=block;endSize=16;endFill=0;html=1;rounded=0;exitX=0.5;exitY=0;exitDx=0;exitDy=0;entryX=0.007;entryY=0.115;entryDx=0;entryDy=0;entryPerimeter=0;" parent="1" source="8RnnDRSXlexf_g840mKL-14" target="8RnnDRSXlexf_g840mKL-1" edge="1">
          <mxGeometry width="160" relative="1" as="geometry">
            <mxPoint x="190" y="220" as="sourcePoint" />
            <mxPoint x="300" y="50" as="targetPoint" />
            <Array as="points">
              <mxPoint x="120" y="50" />
            </Array>
          </mxGeometry>
        </mxCell>
        <mxCell id="8RnnDRSXlexf_g840mKL-40" value="Extends" style="endArrow=block;endSize=16;endFill=0;html=1;rounded=0;exitX=0.5;exitY=0;exitDx=0;exitDy=0;entryX=0.498;entryY=1.115;entryDx=0;entryDy=0;entryPerimeter=0;" parent="1" source="8RnnDRSXlexf_g840mKL-20" target="8RnnDRSXlexf_g840mKL-3" edge="1">
          <mxGeometry width="160" relative="1" as="geometry">
            <mxPoint x="400" y="190" as="sourcePoint" />
            <mxPoint x="560" y="190" as="targetPoint" />
          </mxGeometry>
        </mxCell>
        <mxCell id="8RnnDRSXlexf_g840mKL-41" value="Extends" style="endArrow=block;endSize=16;endFill=0;html=1;rounded=0;exitX=0.5;exitY=0;exitDx=0;exitDy=0;entryX=1.002;entryY=0.132;entryDx=0;entryDy=0;entryPerimeter=0;" parent="1" source="8RnnDRSXlexf_g840mKL-27" target="8RnnDRSXlexf_g840mKL-1" edge="1">
          <mxGeometry width="160" relative="1" as="geometry">
            <mxPoint x="650" y="80" as="sourcePoint" />
            <mxPoint x="810" y="80" as="targetPoint" />
            <Array as="points">
              <mxPoint x="680" y="50" />
            </Array>
          </mxGeometry>
        </mxCell>
        <mxCell id="i74BRaKT675qqBD5_0Uw-1" value="FiguraController&lt;div&gt;&lt;br&gt;&lt;/div&gt;" style="swimlane;fontStyle=1;align=center;verticalAlign=top;childLayout=stackLayout;horizontal=1;startSize=26;horizontalStack=0;resizeParent=1;resizeParentMax=0;resizeLast=0;collapsible=1;marginBottom=0;whiteSpace=wrap;html=1;" parent="1" vertex="1">
          <mxGeometry x="280" y="480" width="240" height="450" as="geometry" />
        </mxCell>
        <mxCell id="i74BRaKT675qqBD5_0Uw-2" value="- ListFiguras &amp;lt;Figura&amp;gt;" style="text;strokeColor=none;fillColor=none;align=left;verticalAlign=top;spacingLeft=4;spacingRight=4;overflow=hidden;rotatable=0;points=[[0,0.5],[1,0.5]];portConstraint=eastwest;whiteSpace=wrap;html=1;" parent="i74BRaKT675qqBD5_0Uw-1" vertex="1">
          <mxGeometry y="26" width="240" height="26" as="geometry" />
        </mxCell>
        <mxCell id="i74BRaKT675qqBD5_0Uw-16" value="- ListCuadrilateros &amp;lt;Cuadrilatero&amp;gt;" style="text;strokeColor=none;fillColor=none;align=left;verticalAlign=top;spacingLeft=4;spacingRight=4;overflow=hidden;rotatable=0;points=[[0,0.5],[1,0.5]];portConstraint=eastwest;whiteSpace=wrap;html=1;" parent="i74BRaKT675qqBD5_0Uw-1" vertex="1">
          <mxGeometry y="52" width="240" height="26" as="geometry" />
        </mxCell>
        <mxCell id="i74BRaKT675qqBD5_0Uw-17" value="- ListTriangulos &amp;lt;Triangulo&amp;gt;" style="text;strokeColor=none;fillColor=none;align=left;verticalAlign=top;spacingLeft=4;spacingRight=4;overflow=hidden;rotatable=0;points=[[0,0.5],[1,0.5]];portConstraint=eastwest;whiteSpace=wrap;html=1;" parent="i74BRaKT675qqBD5_0Uw-1" vertex="1">
          <mxGeometry y="78" width="240" height="26" as="geometry" />
        </mxCell>
        <mxCell id="i74BRaKT675qqBD5_0Uw-18" value="- ListConicas &amp;lt;Conica&amp;gt;" style="text;strokeColor=none;fillColor=none;align=left;verticalAlign=top;spacingLeft=4;spacingRight=4;overflow=hidden;rotatable=0;points=[[0,0.5],[1,0.5]];portConstraint=eastwest;whiteSpace=wrap;html=1;" parent="i74BRaKT675qqBD5_0Uw-1" vertex="1">
          <mxGeometry y="104" width="240" height="26" as="geometry" />
        </mxCell>
        <mxCell id="i74BRaKT675qqBD5_0Uw-3" value="" style="line;strokeWidth=1;fillColor=none;align=left;verticalAlign=middle;spacingTop=-1;spacingLeft=3;spacingRight=3;rotatable=0;labelPosition=right;points=[];portConstraint=eastwest;strokeColor=inherit;" parent="i74BRaKT675qqBD5_0Uw-1" vertex="1">
          <mxGeometry y="130" width="240" height="8" as="geometry" />
        </mxCell>
        <mxCell id="i74BRaKT675qqBD5_0Uw-4" value="+ CrearFigura(): void" style="text;strokeColor=none;fillColor=none;align=left;verticalAlign=top;spacingLeft=4;spacingRight=4;overflow=hidden;rotatable=0;points=[[0,0.5],[1,0.5]];portConstraint=eastwest;whiteSpace=wrap;html=1;" parent="i74BRaKT675qqBD5_0Uw-1" vertex="1">
          <mxGeometry y="138" width="240" height="26" as="geometry" />
        </mxCell>
        <mxCell id="i74BRaKT675qqBD5_0Uw-6" value="+ ModificarFigura(): void" style="text;strokeColor=none;fillColor=none;align=left;verticalAlign=top;spacingLeft=4;spacingRight=4;overflow=hidden;rotatable=0;points=[[0,0.5],[1,0.5]];portConstraint=eastwest;whiteSpace=wrap;html=1;" parent="i74BRaKT675qqBD5_0Uw-1" vertex="1">
          <mxGeometry y="164" width="240" height="26" as="geometry" />
        </mxCell>
        <mxCell id="i74BRaKT675qqBD5_0Uw-5" value="+ EliminarFigura(): Void" style="text;strokeColor=none;fillColor=none;align=left;verticalAlign=top;spacingLeft=4;spacingRight=4;overflow=hidden;rotatable=0;points=[[0,0.5],[1,0.5]];portConstraint=eastwest;whiteSpace=wrap;html=1;" parent="i74BRaKT675qqBD5_0Uw-1" vertex="1">
          <mxGeometry y="190" width="240" height="26" as="geometry" />
        </mxCell>
        <mxCell id="i74BRaKT675qqBD5_0Uw-7" value="+ CrearCuadrilatero(): void" style="text;strokeColor=none;fillColor=none;align=left;verticalAlign=top;spacingLeft=4;spacingRight=4;overflow=hidden;rotatable=0;points=[[0,0.5],[1,0.5]];portConstraint=eastwest;whiteSpace=wrap;html=1;" parent="i74BRaKT675qqBD5_0Uw-1" vertex="1">
          <mxGeometry y="216" width="240" height="26" as="geometry" />
        </mxCell>
        <mxCell id="i74BRaKT675qqBD5_0Uw-8" value="+ ModificarCuadrilatero(): void" style="text;strokeColor=none;fillColor=none;align=left;verticalAlign=top;spacingLeft=4;spacingRight=4;overflow=hidden;rotatable=0;points=[[0,0.5],[1,0.5]];portConstraint=eastwest;whiteSpace=wrap;html=1;" parent="i74BRaKT675qqBD5_0Uw-1" vertex="1">
          <mxGeometry y="242" width="240" height="26" as="geometry" />
        </mxCell>
        <mxCell id="i74BRaKT675qqBD5_0Uw-9" value="+ EliminarCuadrilatero(): void" style="text;strokeColor=none;fillColor=none;align=left;verticalAlign=top;spacingLeft=4;spacingRight=4;overflow=hidden;rotatable=0;points=[[0,0.5],[1,0.5]];portConstraint=eastwest;whiteSpace=wrap;html=1;" parent="i74BRaKT675qqBD5_0Uw-1" vertex="1">
          <mxGeometry y="268" width="240" height="26" as="geometry" />
        </mxCell>
        <mxCell id="i74BRaKT675qqBD5_0Uw-10" value="+ CrearTriangulo(): void" style="text;strokeColor=none;fillColor=none;align=left;verticalAlign=top;spacingLeft=4;spacingRight=4;overflow=hidden;rotatable=0;points=[[0,0.5],[1,0.5]];portConstraint=eastwest;whiteSpace=wrap;html=1;" parent="i74BRaKT675qqBD5_0Uw-1" vertex="1">
          <mxGeometry y="294" width="240" height="26" as="geometry" />
        </mxCell>
        <mxCell id="i74BRaKT675qqBD5_0Uw-11" value="+ ModificarTriangulo(): void&lt;div&gt;&lt;br&gt;&lt;/div&gt;" style="text;strokeColor=none;fillColor=none;align=left;verticalAlign=top;spacingLeft=4;spacingRight=4;overflow=hidden;rotatable=0;points=[[0,0.5],[1,0.5]];portConstraint=eastwest;whiteSpace=wrap;html=1;" parent="i74BRaKT675qqBD5_0Uw-1" vertex="1">
          <mxGeometry y="320" width="240" height="26" as="geometry" />
        </mxCell>
        <mxCell id="i74BRaKT675qqBD5_0Uw-12" value="+ EliminarTriangulo(): void" style="text;strokeColor=none;fillColor=none;align=left;verticalAlign=top;spacingLeft=4;spacingRight=4;overflow=hidden;rotatable=0;points=[[0,0.5],[1,0.5]];portConstraint=eastwest;whiteSpace=wrap;html=1;" parent="i74BRaKT675qqBD5_0Uw-1" vertex="1">
          <mxGeometry y="346" width="240" height="26" as="geometry" />
        </mxCell>
        <mxCell id="i74BRaKT675qqBD5_0Uw-13" value="+ CrearConica(): void" style="text;strokeColor=none;fillColor=none;align=left;verticalAlign=top;spacingLeft=4;spacingRight=4;overflow=hidden;rotatable=0;points=[[0,0.5],[1,0.5]];portConstraint=eastwest;whiteSpace=wrap;html=1;" parent="i74BRaKT675qqBD5_0Uw-1" vertex="1">
          <mxGeometry y="372" width="240" height="26" as="geometry" />
        </mxCell>
        <mxCell id="i74BRaKT675qqBD5_0Uw-14" value="+ ModificarConica(): void" style="text;strokeColor=none;fillColor=none;align=left;verticalAlign=top;spacingLeft=4;spacingRight=4;overflow=hidden;rotatable=0;points=[[0,0.5],[1,0.5]];portConstraint=eastwest;whiteSpace=wrap;html=1;" parent="i74BRaKT675qqBD5_0Uw-1" vertex="1">
          <mxGeometry y="398" width="240" height="26" as="geometry" />
        </mxCell>
        <mxCell id="i74BRaKT675qqBD5_0Uw-15" value="+ EliminarConica(): void" style="text;strokeColor=none;fillColor=none;align=left;verticalAlign=top;spacingLeft=4;spacingRight=4;overflow=hidden;rotatable=0;points=[[0,0.5],[1,0.5]];portConstraint=eastwest;whiteSpace=wrap;html=1;" parent="i74BRaKT675qqBD5_0Uw-1" vertex="1">
          <mxGeometry y="424" width="240" height="26" as="geometry" />
        </mxCell>
        <mxCell id="i74BRaKT675qqBD5_0Uw-19" value="Use" style="endArrow=open;endSize=12;dashed=1;html=1;rounded=0;entryX=0.28;entryY=2.833;entryDx=0;entryDy=0;entryPerimeter=0;exitX=0;exitY=0.5;exitDx=0;exitDy=0;" parent="1" source="i74BRaKT675qqBD5_0Uw-2" target="8RnnDRSXlexf_g840mKL-16" edge="1">
          <mxGeometry width="160" relative="1" as="geometry">
            <mxPoint x="80" y="520" as="sourcePoint" />
            <mxPoint x="220" y="430" as="targetPoint" />
            <Array as="points">
              <mxPoint x="80" y="520" />
            </Array>
          </mxGeometry>
        </mxCell>
        <mxCell id="i74BRaKT675qqBD5_0Uw-20" value="Use" style="endArrow=open;endSize=12;dashed=1;html=1;rounded=0;entryX=0.735;entryY=1.064;entryDx=0;entryDy=0;entryPerimeter=0;" parent="1" target="8RnnDRSXlexf_g840mKL-29" edge="1">
          <mxGeometry width="160" relative="1" as="geometry">
            <mxPoint x="520" y="520" as="sourcePoint" />
            <mxPoint x="680" y="520" as="targetPoint" />
            <Array as="points">
              <mxPoint x="720" y="520" />
            </Array>
          </mxGeometry>
        </mxCell>
        <mxCell id="i74BRaKT675qqBD5_0Uw-21" value="Use" style="endArrow=open;endSize=12;dashed=1;html=1;rounded=0;entryX=0.507;entryY=1.046;entryDx=0;entryDy=0;entryPerimeter=0;exitX=0.5;exitY=0;exitDx=0;exitDy=0;" parent="1" target="ssvTeVl3Sau00PiMSClQ-29" edge="1" source="i74BRaKT675qqBD5_0Uw-1">
          <mxGeometry width="160" relative="1" as="geometry">
            <mxPoint x="520" y="480" as="sourcePoint" />
            <mxPoint x="680" y="480" as="targetPoint" />
            <Array as="points">
              <mxPoint x="401" y="360" />
            </Array>
          </mxGeometry>
        </mxCell>
        <mxCell id="i74BRaKT675qqBD5_0Uw-23" value="Use" style="endArrow=open;endSize=12;dashed=1;html=1;rounded=0;entryX=1;entryY=0.5;entryDx=0;entryDy=0;" parent="1" target="8RnnDRSXlexf_g840mKL-2" edge="1">
          <mxGeometry width="160" relative="1" as="geometry">
            <mxPoint x="520" y="560" as="sourcePoint" />
            <mxPoint x="560" y="120" as="targetPoint" />
            <Array as="points">
              <mxPoint x="800" y="560" />
              <mxPoint x="800" y="79" />
            </Array>
          </mxGeometry>
        </mxCell>
        <mxCell id="ssvTeVl3Sau00PiMSClQ-1" value="FiguraView" style="swimlane;fontStyle=0;childLayout=stackLayout;horizontal=1;startSize=26;fillColor=none;horizontalStack=0;resizeParent=1;resizeParentMax=0;resizeLast=0;collapsible=1;marginBottom=0;whiteSpace=wrap;html=1;" parent="1" vertex="1">
          <mxGeometry y="550" width="240" height="520" as="geometry" />
        </mxCell>
        <mxCell id="ssvTeVl3Sau00PiMSClQ-2" value="- Controller: FiguraController" style="text;strokeColor=none;fillColor=none;align=left;verticalAlign=top;spacingLeft=4;spacingRight=4;overflow=hidden;rotatable=0;points=[[0,0.5],[1,0.5]];portConstraint=eastwest;whiteSpace=wrap;html=1;" parent="ssvTeVl3Sau00PiMSClQ-1" vertex="1">
          <mxGeometry y="26" width="240" height="26" as="geometry" />
        </mxCell>
        <mxCell id="ssvTeVl3Sau00PiMSClQ-3" value="- btnCrearFigura: button" style="text;strokeColor=none;fillColor=none;align=left;verticalAlign=top;spacingLeft=4;spacingRight=4;overflow=hidden;rotatable=0;points=[[0,0.5],[1,0.5]];portConstraint=eastwest;whiteSpace=wrap;html=1;" parent="ssvTeVl3Sau00PiMSClQ-1" vertex="1">
          <mxGeometry y="52" width="240" height="26" as="geometry" />
        </mxCell>
        <mxCell id="ssvTeVl3Sau00PiMSClQ-4" value="- btnModificarFigura: button" style="text;strokeColor=none;fillColor=none;align=left;verticalAlign=top;spacingLeft=4;spacingRight=4;overflow=hidden;rotatable=0;points=[[0,0.5],[1,0.5]];portConstraint=eastwest;whiteSpace=wrap;html=1;" parent="ssvTeVl3Sau00PiMSClQ-1" vertex="1">
          <mxGeometry y="78" width="240" height="26" as="geometry" />
        </mxCell>
        <mxCell id="ssvTeVl3Sau00PiMSClQ-5" value="- btnEliminarFigura: button" style="text;strokeColor=none;fillColor=none;align=left;verticalAlign=top;spacingLeft=4;spacingRight=4;overflow=hidden;rotatable=0;points=[[0,0.5],[1,0.5]];portConstraint=eastwest;whiteSpace=wrap;html=1;" parent="ssvTeVl3Sau00PiMSClQ-1" vertex="1">
          <mxGeometry y="104" width="240" height="26" as="geometry" />
        </mxCell>
        <mxCell id="ssvTeVl3Sau00PiMSClQ-6" value="- btnCrearCuadrilatero: button" style="text;strokeColor=none;fillColor=none;align=left;verticalAlign=top;spacingLeft=4;spacingRight=4;overflow=hidden;rotatable=0;points=[[0,0.5],[1,0.5]];portConstraint=eastwest;whiteSpace=wrap;html=1;" parent="ssvTeVl3Sau00PiMSClQ-1" vertex="1">
          <mxGeometry y="130" width="240" height="26" as="geometry" />
        </mxCell>
        <mxCell id="ssvTeVl3Sau00PiMSClQ-7" value="- btnModificarCuadrilatero: button" style="text;strokeColor=none;fillColor=none;align=left;verticalAlign=top;spacingLeft=4;spacingRight=4;overflow=hidden;rotatable=0;points=[[0,0.5],[1,0.5]];portConstraint=eastwest;whiteSpace=wrap;html=1;" parent="ssvTeVl3Sau00PiMSClQ-1" vertex="1">
          <mxGeometry y="156" width="240" height="26" as="geometry" />
        </mxCell>
        <mxCell id="ssvTeVl3Sau00PiMSClQ-8" value="- btnEliminarCuadrilatero: button" style="text;strokeColor=none;fillColor=none;align=left;verticalAlign=top;spacingLeft=4;spacingRight=4;overflow=hidden;rotatable=0;points=[[0,0.5],[1,0.5]];portConstraint=eastwest;whiteSpace=wrap;html=1;" parent="ssvTeVl3Sau00PiMSClQ-1" vertex="1">
          <mxGeometry y="182" width="240" height="26" as="geometry" />
        </mxCell>
        <mxCell id="ssvTeVl3Sau00PiMSClQ-9" value="- btnCrearTriangulo: button" style="text;strokeColor=none;fillColor=none;align=left;verticalAlign=top;spacingLeft=4;spacingRight=4;overflow=hidden;rotatable=0;points=[[0,0.5],[1,0.5]];portConstraint=eastwest;whiteSpace=wrap;html=1;" parent="ssvTeVl3Sau00PiMSClQ-1" vertex="1">
          <mxGeometry y="208" width="240" height="26" as="geometry" />
        </mxCell>
        <mxCell id="ssvTeVl3Sau00PiMSClQ-10" value="- btnModificarTriangulo: button" style="text;strokeColor=none;fillColor=none;align=left;verticalAlign=top;spacingLeft=4;spacingRight=4;overflow=hidden;rotatable=0;points=[[0,0.5],[1,0.5]];portConstraint=eastwest;whiteSpace=wrap;html=1;" parent="ssvTeVl3Sau00PiMSClQ-1" vertex="1">
          <mxGeometry y="234" width="240" height="26" as="geometry" />
        </mxCell>
        <mxCell id="ssvTeVl3Sau00PiMSClQ-11" value="- btnEliminarTriangulo: button" style="text;strokeColor=none;fillColor=none;align=left;verticalAlign=top;spacingLeft=4;spacingRight=4;overflow=hidden;rotatable=0;points=[[0,0.5],[1,0.5]];portConstraint=eastwest;whiteSpace=wrap;html=1;" parent="ssvTeVl3Sau00PiMSClQ-1" vertex="1">
          <mxGeometry y="260" width="240" height="26" as="geometry" />
        </mxCell>
        <mxCell id="ssvTeVl3Sau00PiMSClQ-12" value="- btnCrearConica: button" style="text;strokeColor=none;fillColor=none;align=left;verticalAlign=top;spacingLeft=4;spacingRight=4;overflow=hidden;rotatable=0;points=[[0,0.5],[1,0.5]];portConstraint=eastwest;whiteSpace=wrap;html=1;" parent="ssvTeVl3Sau00PiMSClQ-1" vertex="1">
          <mxGeometry y="286" width="240" height="26" as="geometry" />
        </mxCell>
        <mxCell id="ssvTeVl3Sau00PiMSClQ-13" value="- btnModificarConica: button" style="text;strokeColor=none;fillColor=none;align=left;verticalAlign=top;spacingLeft=4;spacingRight=4;overflow=hidden;rotatable=0;points=[[0,0.5],[1,0.5]];portConstraint=eastwest;whiteSpace=wrap;html=1;" parent="ssvTeVl3Sau00PiMSClQ-1" vertex="1">
          <mxGeometry y="312" width="240" height="26" as="geometry" />
        </mxCell>
        <mxCell id="ssvTeVl3Sau00PiMSClQ-14" value="- btnEliminarConica: button" style="text;strokeColor=none;fillColor=none;align=left;verticalAlign=top;spacingLeft=4;spacingRight=4;overflow=hidden;rotatable=0;points=[[0,0.5],[1,0.5]];portConstraint=eastwest;whiteSpace=wrap;html=1;" parent="ssvTeVl3Sau00PiMSClQ-1" vertex="1">
          <mxGeometry y="338" width="240" height="26" as="geometry" />
        </mxCell>
        <mxCell id="ssvTeVl3Sau00PiMSClQ-16" value="- btnMostrarFiguras: button" style="text;strokeColor=none;fillColor=none;align=left;verticalAlign=top;spacingLeft=4;spacingRight=4;overflow=hidden;rotatable=0;points=[[0,0.5],[1,0.5]];portConstraint=eastwest;whiteSpace=wrap;html=1;" parent="ssvTeVl3Sau00PiMSClQ-1" vertex="1">
          <mxGeometry y="364" width="240" height="26" as="geometry" />
        </mxCell>
        <mxCell id="ssvTeVl3Sau00PiMSClQ-17" value="- btnMostrarCuadrilateros: button" style="text;strokeColor=none;fillColor=none;align=left;verticalAlign=top;spacingLeft=4;spacingRight=4;overflow=hidden;rotatable=0;points=[[0,0.5],[1,0.5]];portConstraint=eastwest;whiteSpace=wrap;html=1;" parent="ssvTeVl3Sau00PiMSClQ-1" vertex="1">
          <mxGeometry y="390" width="240" height="26" as="geometry" />
        </mxCell>
        <mxCell id="ssvTeVl3Sau00PiMSClQ-18" value="- btnMostrarTriangulos: button" style="text;strokeColor=none;fillColor=none;align=left;verticalAlign=top;spacingLeft=4;spacingRight=4;overflow=hidden;rotatable=0;points=[[0,0.5],[1,0.5]];portConstraint=eastwest;whiteSpace=wrap;html=1;" parent="ssvTeVl3Sau00PiMSClQ-1" vertex="1">
          <mxGeometry y="416" width="240" height="26" as="geometry" />
        </mxCell>
        <mxCell id="ssvTeVl3Sau00PiMSClQ-19" value="- btnMostrarConicas: button" style="text;strokeColor=none;fillColor=none;align=left;verticalAlign=top;spacingLeft=4;spacingRight=4;overflow=hidden;rotatable=0;points=[[0,0.5],[1,0.5]];portConstraint=eastwest;whiteSpace=wrap;html=1;" parent="ssvTeVl3Sau00PiMSClQ-1" vertex="1">
          <mxGeometry y="442" width="240" height="26" as="geometry" />
        </mxCell>
        <mxCell id="ssvTeVl3Sau00PiMSClQ-20" value="- btnMostrarPerimetroFigura: button" style="text;strokeColor=none;fillColor=none;align=left;verticalAlign=top;spacingLeft=4;spacingRight=4;overflow=hidden;rotatable=0;points=[[0,0.5],[1,0.5]];portConstraint=eastwest;whiteSpace=wrap;html=1;" parent="ssvTeVl3Sau00PiMSClQ-1" vertex="1">
          <mxGeometry y="468" width="240" height="26" as="geometry" />
        </mxCell>
        <mxCell id="ssvTeVl3Sau00PiMSClQ-21" value="- btnMostrarSuperficieFigura: button" style="text;strokeColor=none;fillColor=none;align=left;verticalAlign=top;spacingLeft=4;spacingRight=4;overflow=hidden;rotatable=0;points=[[0,0.5],[1,0.5]];portConstraint=eastwest;whiteSpace=wrap;html=1;" parent="ssvTeVl3Sau00PiMSClQ-1" vertex="1">
          <mxGeometry y="494" width="240" height="26" as="geometry" />
        </mxCell>
        <mxCell id="ssvTeVl3Sau00PiMSClQ-15" value="" style="endArrow=diamondThin;endFill=1;endSize=24;html=1;rounded=0;entryX=0.5;entryY=0.983;entryDx=0;entryDy=0;entryPerimeter=0;exitX=0.497;exitY=1.021;exitDx=0;exitDy=0;exitPerimeter=0;" parent="1" source="i74BRaKT675qqBD5_0Uw-15" edge="1">
          <mxGeometry width="160" relative="1" as="geometry">
            <mxPoint x="400" y="1086.44" as="sourcePoint" />
            <mxPoint x="120" y="1069.998" as="targetPoint" />
            <Array as="points">
              <mxPoint x="400" y="1156.44" />
              <mxPoint x="120" y="1156.44" />
            </Array>
          </mxGeometry>
        </mxCell>
        <mxCell id="ObV1rv8a1Gx8vVV9x_go-5" value="IFigura" style="swimlane;fontStyle=0;childLayout=stackLayout;horizontal=1;startSize=26;fillColor=none;horizontalStack=0;resizeParent=1;resizeParentMax=0;resizeLast=0;collapsible=1;marginBottom=0;whiteSpace=wrap;html=1;" vertex="1" parent="1">
          <mxGeometry x="-280" y="200" width="160" height="78" as="geometry" />
        </mxCell>
        <mxCell id="ObV1rv8a1Gx8vVV9x_go-6" value="+ CalcularPerimetro()" style="text;strokeColor=none;fillColor=none;align=left;verticalAlign=top;spacingLeft=4;spacingRight=4;overflow=hidden;rotatable=0;points=[[0,0.5],[1,0.5]];portConstraint=eastwest;whiteSpace=wrap;html=1;" vertex="1" parent="ObV1rv8a1Gx8vVV9x_go-5">
          <mxGeometry y="26" width="160" height="26" as="geometry" />
        </mxCell>
        <mxCell id="ObV1rv8a1Gx8vVV9x_go-9" value="+ CalcularSuperficie()" style="text;strokeColor=none;fillColor=none;align=left;verticalAlign=top;spacingLeft=4;spacingRight=4;overflow=hidden;rotatable=0;points=[[0,0.5],[1,0.5]];portConstraint=eastwest;whiteSpace=wrap;html=1;" vertex="1" parent="ObV1rv8a1Gx8vVV9x_go-5">
          <mxGeometry y="52" width="160" height="26" as="geometry" />
        </mxCell>
        <mxCell id="ObV1rv8a1Gx8vVV9x_go-10" value="" style="endArrow=block;dashed=1;endFill=0;endSize=12;html=1;rounded=0;exitX=-0.007;exitY=0.016;exitDx=0;exitDy=0;exitPerimeter=0;entryX=0.991;entryY=-0.027;entryDx=0;entryDy=0;entryPerimeter=0;" edge="1" parent="1" source="8RnnDRSXlexf_g840mKL-15" target="ObV1rv8a1Gx8vVV9x_go-6">
          <mxGeometry width="160" relative="1" as="geometry">
            <mxPoint x="-140" y="340" as="sourcePoint" />
            <mxPoint x="20" y="340" as="targetPoint" />
          </mxGeometry>
        </mxCell>
        <mxCell id="ObV1rv8a1Gx8vVV9x_go-11" value="" style="endArrow=block;dashed=1;endFill=0;endSize=12;html=1;rounded=0;exitX=0.154;exitY=1.163;exitDx=0;exitDy=0;entryX=0.5;entryY=1.077;entryDx=0;entryDy=0;entryPerimeter=0;exitPerimeter=0;" edge="1" parent="1" source="ssvTeVl3Sau00PiMSClQ-29" target="ObV1rv8a1Gx8vVV9x_go-9">
          <mxGeometry width="160" relative="1" as="geometry">
            <mxPoint x="20" y="340" as="sourcePoint" />
            <mxPoint x="180" y="340" as="targetPoint" />
            <Array as="points">
              <mxPoint x="340" y="360" />
              <mxPoint x="-200" y="360" />
            </Array>
          </mxGeometry>
        </mxCell>
        <mxCell id="ObV1rv8a1Gx8vVV9x_go-12" value="IConica" style="swimlane;fontStyle=0;childLayout=stackLayout;horizontal=1;startSize=26;fillColor=none;horizontalStack=0;resizeParent=1;resizeParentMax=0;resizeLast=0;collapsible=1;marginBottom=0;whiteSpace=wrap;html=1;" vertex="1" parent="1">
          <mxGeometry x="880" y="200" width="160" height="78" as="geometry" />
        </mxCell>
        <mxCell id="ObV1rv8a1Gx8vVV9x_go-13" value="+ CalcularPerimetro()" style="text;strokeColor=none;fillColor=none;align=left;verticalAlign=top;spacingLeft=4;spacingRight=4;overflow=hidden;rotatable=0;points=[[0,0.5],[1,0.5]];portConstraint=eastwest;whiteSpace=wrap;html=1;" vertex="1" parent="ObV1rv8a1Gx8vVV9x_go-12">
          <mxGeometry y="26" width="160" height="26" as="geometry" />
        </mxCell>
        <mxCell id="ObV1rv8a1Gx8vVV9x_go-14" value="+ CalcularSuperficie()" style="text;strokeColor=none;fillColor=none;align=left;verticalAlign=top;spacingLeft=4;spacingRight=4;overflow=hidden;rotatable=0;points=[[0,0.5],[1,0.5]];portConstraint=eastwest;whiteSpace=wrap;html=1;" vertex="1" parent="ObV1rv8a1Gx8vVV9x_go-12">
          <mxGeometry y="52" width="160" height="26" as="geometry" />
        </mxCell>
        <mxCell id="ObV1rv8a1Gx8vVV9x_go-16" value="" style="endArrow=block;dashed=1;endFill=0;endSize=12;html=1;rounded=0;exitX=1.02;exitY=0.185;exitDx=0;exitDy=0;exitPerimeter=0;" edge="1" parent="1" source="8RnnDRSXlexf_g840mKL-28">
          <mxGeometry width="160" relative="1" as="geometry">
            <mxPoint x="510" y="340" as="sourcePoint" />
            <mxPoint x="880" y="230" as="targetPoint" />
            <Array as="points">
              <mxPoint x="820" y="230" />
            </Array>
          </mxGeometry>
        </mxCell>
      </root>
    </mxGraphModel>
  </diagram>
</mxfile>
